<svg id="visual" viewBox="0 0 900 900" width="900" height="900" xmlns="http://www.w3.org/2000/svg" xmlns:xlink="http://www.w3.org/1999/xlink" version="1.1"><g transform="translate(397.57011748285686 424.03038183804597)"><path d="M123.4 -198.4C148.8 -199.1 150.6 -143.5 141.3 -101.1C131.9 -58.7 111.5 -29.3 151 22.8C190.6 75 290.1 150 311.8 213.8C333.5 277.6 277.2 330.2 212.3 308C147.3 285.9 73.7 188.9 9.6 172.3C-54.5 155.7 -109 219.5 -131.4 217C-153.7 214.6 -144 146.1 -126.1 98.9C-108.2 51.7 -82.3 25.8 -99.7 -10.1C-117.2 -46 -178.1 -92 -201 -147.9C-223.8 -203.7 -208.7 -269.4 -168.8 -260.4C-129 -251.4 -64.5 -167.7 -7.8 -154.3C49 -140.9 98 -197.7 123.4 -198.4" fill="#BB004B"></path></g></svg>